<svg version="1.1" id="Ebene_1" xmlns:x="ns_extend;" xmlns:i="ns_ai;" xmlns:graph="ns_graphs;" xmlns="http://www.w3.org/2000/svg" xmlns:xlink="http://www.w3.org/1999/xlink" x="0px" y="0px" viewBox="0 0 56 56" style="enable-background:new 0 0 56 56;" xml:space="preserve">
 <style type="text/css">
  .st0{fill:#FFCC00;}
	.st1{fill:#FF0000;}
 </style>
 <metadata>
  <sfw xmlns="ns_sfw;">
   <slices>
   </slices>
   <sliceSourceBounds bottomLeftOrigin="true" height="56" width="56" x="0" y="0">
   </sliceSourceBounds>
  </sfw>
 </metadata>
 <g id="Logo">
  <rect x="0" y="0" class="st0" width="56" height="56">
  </rect>
  <polygon class="st1" points="26.44,25.12 26.44,14.78 15.32,14.78 15.32,22.63 7.78,22.63 7.78,33.37 15.32,33.37 15.32,41.22 
		26.44,41.22 26.44,30.88 23.8,30.88 23.8,38.73 17.97,38.73 17.97,30.88 10.42,30.88 10.42,25.12 17.97,25.12 17.97,17.27 
		23.8,17.27 23.8,25.12 	">
  </polygon>
  <path d="M41.66,24.19c0,1.88-1.55,3.34-3.51,3.34h-2.99v-6.46h2.99C40.19,21.08,41.66,22.39,41.66,24.19z M39.43,14.78H28v26.44
		h7.16v-7.86h4.28c5.25,0,9.33-4.01,9.33-9.18C48.76,18.97,44.61,14.78,39.43,14.78z">
  </path>
 </g>
</svg>